<svg width="24" height="24" viewBox="0 0 24 24" fill="none" xmlns="http://www.w3.org/2000/svg">
<path fill-rule="evenodd" clip-rule="evenodd" d="M7.45508 1.25C7.04086 1.25 6.70508 1.58579 6.70508 2V16.7046H3.81818C2.39942 16.7046 1.25 17.854 1.25 19.2728V22C1.25 22.4143 1.58579 22.75 2 22.75H12.9091C13.3233 22.75 13.6591 22.4143 13.6591 22V19.6519C13.6591 18.8434 14.307 18.2046 15.1818 18.2046L15.1889 18.2046C16.0052 18.2075 16.7051 18.7661 16.7051 19.7273C16.7051 21.3969 18.0581 22.75 19.7278 22.75C21.3975 22.75 22.7505 21.3969 22.7505 19.7273V2C22.7505 1.58579 22.4147 1.25 22.0005 1.25H7.45508ZM15.1742 16.7046L15.1824 16.7045C16.7159 16.7045 18.2051 17.8255 18.2051 19.7273C18.2051 20.5685 18.8866 21.25 19.7278 21.25C20.569 21.25 21.2505 20.5685 21.2505 19.7273V2.75H8.20508V16.7046H15.1742ZM3.81818 18.2046H12.5359C12.2965 18.6253 12.1591 19.1159 12.1591 19.6519V21.25H2.75V19.2728C2.75 18.6824 3.22785 18.2046 3.81818 18.2046ZM11.25 7.45459C11.25 7.04038 11.5858 6.70459 12 6.70459H17.4545C17.8688 6.70459 18.2045 7.04038 18.2045 7.45459C18.2045 7.8688 17.8688 8.20459 17.4545 8.20459H12C11.5858 8.20459 11.25 7.8688 11.25 7.45459ZM12 11.25C11.5858 11.25 11.25 11.5858 11.25 12C11.25 12.4142 11.5858 12.75 12 12.75H17.4545C17.8688 12.75 18.2045 12.4142 18.2045 12C18.2045 11.5858 17.8688 11.25 17.4545 11.25H12Z" fill="#555859"/>
</svg>
