<svg width="24" height="24" viewBox="0 0 24 24" fill="none" xmlns="http://www.w3.org/2000/svg">
<path fill-rule="evenodd" clip-rule="evenodd" d="M1.5 5.25C1.5 4.83579 1.83579 4.5 2.25 4.5H21.75C22.1642 4.5 22.5 4.83579 22.5 5.25C22.5 5.66421 22.1642 6 21.75 6H2.25C1.83579 6 1.5 5.66421 1.5 5.25ZM1.5 12.75C1.5 12.3358 1.83579 12 2.25 12H21.75C22.1642 12 22.5 12.3358 22.5 12.75C22.5 13.1642 22.1642 13.5 21.75 13.5H2.25C1.83579 13.5 1.5 13.1642 1.5 12.75ZM2.25 19.5C1.83579 19.5 1.5 19.8358 1.5 20.25C1.5 20.6642 1.83579 21 2.25 21H21.75C22.1642 21 22.5 20.6642 22.5 20.25C22.5 19.8358 22.1642 19.5 21.75 19.5H2.25Z" fill="#555859"/>
</svg>
