<svg width="24" height="24" viewBox="0 0 24 24" fill="none" xmlns="http://www.w3.org/2000/svg">
<g clip-path="url(#clip0_537_21850)">
<path fill-rule="evenodd" clip-rule="evenodd" d="M1.39258 0.428711C1.39258 0.0144974 1.72836 -0.321289 2.14258 -0.321289H21.9793C22.3935 -0.321289 22.7293 0.0144974 22.7293 0.428711V23.5716C22.7293 23.8482 22.5771 24.1023 22.3332 24.2328C22.0893 24.3633 21.7934 24.349 21.5633 24.1956L18.6732 22.2689L15.7831 24.1956C15.5312 24.3636 15.203 24.3636 14.951 24.1956L12.0609 22.2689L9.17085 24.1956C8.91892 24.3636 8.59072 24.3636 8.3388 24.1956L5.4487 22.2689L2.5586 24.1956C2.32846 24.349 2.03255 24.3633 1.78868 24.2328C1.54482 24.1023 1.39258 23.8482 1.39258 23.5716V0.428711ZM2.89258 1.17871V22.1702L5.03268 20.7434C5.2846 20.5755 5.6128 20.5755 5.86473 20.7434L8.75482 22.6702L11.6449 20.7434C11.8968 20.5755 12.225 20.5755 12.477 20.7434L15.3671 22.6702L18.2572 20.7434C18.5091 20.5755 18.8373 20.5755 19.0892 20.7434L21.2293 22.1702V1.17871H2.89258ZM5.80078 7.04102C5.80078 6.6268 6.13657 6.29102 6.55078 6.29102H12.061C12.4752 6.29102 12.811 6.6268 12.811 7.04102C12.811 7.45523 12.4752 7.79102 12.061 7.79102H6.55078C6.13657 7.79102 5.80078 7.45523 5.80078 7.04102ZM16.4688 6.29102C16.0545 6.29102 15.7188 6.6268 15.7188 7.04102C15.7188 7.45523 16.0545 7.79102 16.4688 7.79102H17.5708C17.985 7.79102 18.3208 7.45523 18.3208 7.04102C18.3208 6.6268 17.985 6.29102 17.5708 6.29102H16.4688ZM5.80078 11.4492C5.80078 11.035 6.13657 10.6992 6.55078 10.6992H12.061C12.4752 10.6992 12.811 11.035 12.811 11.4492C12.811 11.8634 12.4752 12.1992 12.061 12.1992H6.55078C6.13657 12.1992 5.80078 11.8634 5.80078 11.4492ZM16.4688 10.6992C16.0545 10.6992 15.7188 11.035 15.7188 11.4492C15.7188 11.8634 16.0545 12.1992 16.4688 12.1992H17.5708C17.985 12.1992 18.3208 11.8634 18.3208 11.4492C18.3208 11.035 17.985 10.6992 17.5708 10.6992H16.4688ZM5.80078 15.8569C5.80078 15.4427 6.13657 15.1069 6.55078 15.1069H12.061C12.4752 15.1069 12.811 15.4427 12.811 15.8569C12.811 16.2711 12.4752 16.6069 12.061 16.6069H6.55078C6.13657 16.6069 5.80078 16.2711 5.80078 15.8569ZM16.4688 15.1069C16.0545 15.1069 15.7188 15.4427 15.7188 15.8569C15.7188 16.2711 16.0545 16.6069 16.4688 16.6069H17.5708C17.985 16.6069 18.3208 16.2711 18.3208 15.8569C18.3208 15.4427 17.985 15.1069 17.5708 15.1069H16.4688Z" fill="#555859"/>
</g>
<defs>
<clipPath id="clip0_537_21850">
<rect width="24" height="24" fill="white"/>
</clipPath>
</defs>
</svg>
