<svg width="24" height="24" viewBox="0 0 24 24" fill="none" xmlns="http://www.w3.org/2000/svg">
<path fill-rule="evenodd" clip-rule="evenodd" d="M7 3C4.79086 3 3 4.79086 3 7V17C3 19.2091 4.79086 21 7 21H17C19.2091 21 21 19.2091 21 17V7C21 4.79086 19.2091 3 17 3H7ZM1 7C1 3.68629 3.68629 1 7 1H17C20.3137 1 23 3.68629 23 7V17C23 20.3137 20.3137 23 17 23H7C3.68629 23 1 20.3137 1 17V7ZM12.483 8.989C11.8588 8.89644 11.2214 9.00305 10.6613 9.29368C10.1012 9.5843 9.64696 10.0441 9.36327 10.6078C9.07957 11.1714 8.98083 11.8102 9.08107 12.4332C9.18132 13.0562 9.47546 13.6317 9.92165 14.0779C10.3678 14.5241 10.9434 14.8182 11.5664 14.9184C12.1894 15.0187 12.8281 14.9199 13.3917 14.6363C13.9554 14.3526 14.4152 13.8984 14.7058 13.3383C14.9965 12.7782 15.1031 12.1407 15.0105 11.5165C14.9161 10.8798 14.6194 10.2904 14.1643 9.83523C13.7092 9.38009 13.1197 9.08341 12.483 8.989ZM9.74012 7.51843C10.6736 7.03406 11.7361 6.85637 12.7764 7.01063C13.8375 7.16799 14.82 7.66246 15.5785 8.42101C16.3371 9.17957 16.8315 10.162 16.9889 11.2231C17.1432 12.2634 16.9655 13.3259 16.4811 14.2594C15.9967 15.1929 15.2303 15.9499 14.2909 16.4227C13.3515 16.8955 12.287 17.0601 11.2486 16.893C10.2103 16.726 9.25109 16.2357 8.50744 15.4921C7.76379 14.7484 7.27356 13.7892 7.10647 12.7509C6.93939 11.7126 7.10397 10.648 7.5768 9.7086C8.04962 8.7692 8.80662 8.00281 9.74012 7.51843ZM17.5 5.5C16.9477 5.5 16.5 5.94772 16.5 6.5C16.5 7.05228 16.9477 7.5 17.5 7.5H17.51C18.0623 7.5 18.51 7.05228 18.51 6.5C18.51 5.94772 18.0623 5.5 17.51 5.5H17.5Z" fill="#555859"/>
</svg>
