<svg width="24" height="24" viewBox="0 0 24 24" fill="none" xmlns="http://www.w3.org/2000/svg">
<path fill-rule="evenodd" clip-rule="evenodd" d="M21.9008 0.957085C22.3112 1.01274 22.5989 1.3906 22.5432 1.80106L21.7432 7.70106C21.6876 8.11087 21.3108 8.39836 20.9009 8.3437L14.9009 7.54371C14.4903 7.48896 14.2018 7.11174 14.2566 6.70116C14.3113 6.29058 14.6885 6.00212 15.0991 6.05686L19.5368 6.64855C17.8913 4.27163 15.1233 2.75009 12 2.75009C6.91421 2.75009 2.75 6.9143 2.75 12.0001C2.75 12.4143 2.41421 12.7501 2 12.7501C1.58579 12.7501 1.25 12.4143 1.25 12.0001C1.25 6.08588 6.08579 1.25009 12 1.25009C15.4744 1.25009 18.5876 2.87784 20.5326 5.46551L21.0568 1.59951C21.1125 1.18905 21.4903 0.90143 21.9008 0.957085ZM22.7496 12.0001C22.7496 11.5859 22.4138 11.2501 21.9996 11.2501C21.5854 11.2501 21.2496 11.5859 21.2496 12.0001C21.2496 17.0859 17.0854 21.2501 11.9996 21.2501C8.87643 21.2501 6.10845 19.7286 4.46293 17.3518L8.9001 17.9434C9.31068 17.9982 9.6879 17.7097 9.74264 17.2991C9.79738 16.8885 9.50892 16.5113 9.09834 16.4566L3.09834 15.6566C2.68841 15.6019 2.31159 15.8894 2.25602 16.2992L1.45602 22.1992C1.40036 22.6097 1.68799 22.9875 2.09845 23.0432C2.5089 23.0988 2.88676 22.8112 2.94242 22.4008L3.46669 18.5342C5.41165 21.1222 8.52498 22.7501 11.9996 22.7501C17.9138 22.7501 22.7496 17.9143 22.7496 12.0001Z" fill="#555859"/>
</svg>
