<svg width="24" height="24" viewBox="0 0 24 24" fill="none" xmlns="http://www.w3.org/2000/svg">
<path fill-rule="evenodd" clip-rule="evenodd" d="M11.4691 15.3209C15.2856 15.3209 18.3795 12.227 18.3795 8.41045C18.3795 4.59391 15.2856 1.5 11.4691 1.5C7.65253 1.5 4.55862 4.59391 4.55862 8.41045C4.55862 12.227 7.65253 15.3209 11.4691 15.3209ZM17.8447 13.8958C19.1129 12.4232 19.8795 10.5063 19.8795 8.41045C19.8795 3.76549 16.114 0 11.4691 0C6.8241 0 3.05862 3.76549 3.05862 8.41045C3.05862 10.6399 3.92607 12.6667 5.34186 14.1718C5.32244 14.1872 5.30358 14.2036 5.28539 14.2211L0.479423 18.8555C0.259273 19.0678 0.190072 19.3924 0.304535 19.6761C0.418998 19.9597 0.694195 20.1453 1.00002 20.1453H3.68286V22.9998C3.68286 23.3014 3.86344 23.5736 4.14124 23.6908C4.41904 23.8081 4.74004 23.7475 4.95607 23.5372L11.2601 17.3991H12.3487L18.1343 23.5152C18.3453 23.7384 18.6711 23.8102 18.9565 23.6967C19.2419 23.5831 19.4291 23.307 19.4291 22.9998V20.1453H22.2836C22.587 20.1453 22.8604 19.9626 22.9765 19.6824C23.0926 19.4021 23.0284 19.0795 22.8139 18.865L17.8447 13.8958ZM16.7689 14.9413C15.8544 15.6843 14.7809 16.2391 13.6072 16.5467L17.9291 21.1156V19.3953C17.9291 18.9811 18.2649 18.6453 18.6791 18.6453H20.4729L16.7689 14.9413ZM9.86134 16.6674C8.59878 16.423 7.43692 15.8962 6.44414 15.1554C6.4119 15.2075 6.37271 15.2564 6.3266 15.3009L2.85828 18.6453H4.43286C4.84707 18.6453 5.18286 18.9811 5.18286 19.3953V21.2228L9.86134 16.6674ZM11.6404 11.2017C13.2767 11.2017 14.6031 9.8753 14.6031 8.23905C14.6031 6.60281 13.2767 5.27637 11.6404 5.27637C10.0042 5.27637 8.67776 6.60281 8.67776 8.23905C8.67776 9.8753 10.0042 11.2017 11.6404 11.2017ZM11.6404 12.7017C14.1051 12.7017 16.1031 10.7037 16.1031 8.23905C16.1031 5.77438 14.1051 3.77637 11.6404 3.77637C9.17577 3.77637 7.17776 5.77438 7.17776 8.23905C7.17776 10.7037 9.17577 12.7017 11.6404 12.7017Z" fill="#555859"/>
</svg>
