<svg width="48" height="48" viewBox="0 0 48 48" fill="none" xmlns="http://www.w3.org/2000/svg">
<circle cx="24" cy="24" r="24" fill="white"/>
<path fill-rule="evenodd" clip-rule="evenodd" d="M19.8516 18.1014C19.8516 15.6982 21.7998 13.75 24.203 13.75C26.6063 13.75 28.5545 15.6982 28.5545 18.1014C28.5545 20.5047 26.6063 22.4529 24.203 22.4529C21.7998 22.4529 19.8516 20.5047 19.8516 18.1014ZM24.203 12.25C20.9713 12.25 18.3516 14.8698 18.3516 18.1014C18.3516 21.3331 20.9713 23.9529 24.203 23.9529C27.4347 23.9529 30.0545 21.3331 30.0545 18.1014C30.0545 14.8698 27.4347 12.25 24.203 12.25ZM19.1014 26.5977C17.5495 26.5977 16.0612 27.2141 14.9638 28.3115C13.8665 29.4089 13.25 30.8972 13.25 32.4491V34.9998C13.25 35.414 13.5858 35.7498 14 35.7498C14.4142 35.7498 14.75 35.414 14.75 34.9998V32.4491C14.75 31.295 15.2085 30.1882 16.0245 29.3722C16.8406 28.5561 17.9474 28.0977 19.1014 28.0977H29.3043C30.4584 28.0977 31.5652 28.5561 32.3813 29.3722C33.1973 30.1882 33.6558 31.295 33.6558 32.4491V34.9998C33.6558 35.414 33.9916 35.7498 34.4058 35.7498C34.82 35.7498 35.1558 35.414 35.1558 34.9998V32.4491C35.1558 30.8972 34.5393 29.4089 33.4419 28.3115C32.3446 27.2141 30.8563 26.5977 29.3043 26.5977H19.1014Z" fill="#555859"/>
</svg>
