<svg xmlns:xlink="http://www.w3.org/1999/xlink" xmlns="http://www.w3.org/2000/svg" version="1.2" viewBox="0 0 500 661" width="500" height="661">
	<title>220322-ELTAMD-LOGO-RGB-ai</title>
	<style>
		.s0 { fill: #000000 } 
		.s1 { fill: #a8292e } 
	</style>
	<g id="Layer 1">
		<g id="&lt;Group&gt;">
			<g id="&lt;Group&gt;">
				<path id="&lt;Compound Path&gt;" fill-rule="evenodd" class="s0" d="m480.5 275.2c0 9.3-1.2 24.5 18 18.9 0.9-0.3 1.8 0.5 1.4 1.3-1.5 3.7-7 16.1-25.2 16.1-20.6 0-26.8-16.1-28.6-26.3-0.2-1-1.5-1.2-2.1-0.4-12 19.5-33.1 28.4-45.9 29.1-42.6 2.3-67.2-30.5-67.2-80.5 0-47.7 23.5-90.1 72.3-90.1 0.7 0 1.4 0 2.1 0 0.3 0 0.6 0 0.9 0 17.6 0 35.2 9.8 42.3 16.3l29-12.1c1.6-0.6 3.3 0.5 3.3 2.2l-0.3 94.6zm-35.2-51.3c0-26.2 0.7-68.6-37.4-68.6-30.5 0-42 39.2-42 75.3 0 34.2 8.2 66.1 37.5 66.1 35.3 0 41.9-38.6 41.9-72.8z"/>
				<path id="&lt;Compound Path&gt;" fill-rule="evenodd" class="s0" d="m145.3 268.4c1.4 0.8 1.4 1.9 1.2 2.6-5.9 19.6-26.2 43.4-66.1 43.4-55.8 0-80.4-40.1-80.4-85.8 0-42.9 28.6-85.8 79.1-85.8q76.8 0 72.5 83.6h-115.9c0 33.5 11.5 67.9 54.9 67.9 30.9 0 43.7-16.6 51.5-25.4 0.6-0.7 2-1.1 3.2-0.5zm-109.9-54.5h78.8c0.3-45.4-18.3-58.3-36.6-58.3-28.8 0-41 26.6-42.2 58.3z"/>
				<path id="&lt;Path&gt;" class="s0" d="m172.8 234v-113.6c0-21-6.4-27.1-9.7-28.4-0.7-0.3-0.9-1.2-0.4-1.8 2.2-2.5 8.1-7.5 20.1-7.5 17 0 26.2 13.3 26.2 38.2v16.1 30.7 103.3c0 27.2 22.2 24 30.6 20.9 0.9-0.3 1.8 0.5 1.5 1.4-1.8 6.5-11.9 21.1-32.6 21.1-23.9 0-35.1-18.1-35.6-38.4h-0.1v-1.6z"/>
				<path id="&lt;Path&gt;" class="s0" d="m293.9 159.7c-0.2 0-0.4 0.1-0.4 0.3v111c0 27.2 22.2 24 30.6 20.9 0.9-0.3 1.8 0.5 1.5 1.4-1.8 6.5-11.9 21.1-32.6 21.1-24.6 0-35.7-19-35.7-40v-12.9-27.5-73.8c0-0.2-0.1-0.3-0.3-0.3h-21.8q-0.1-4.9 0-5c24.9-18.6 51.9-44.6 56.9-50.1 0.5-0.6 1.4-0.2 1.4 0.5v1.9 39.2c0 0.2 0.2 0.3 0.4 0.3h32c0.2 0 0.3 0.2 0.3 0.4-0.3 2.4-1.7 12.6-16.9 12.6z"/>
				<path id="&lt;Path&gt;" class="s1" d="m212.8 413.6l-66.6 121.6-66-122.1v135.5h-24.2v-180.1h24.2 21.4l50.2 113.1 59-113.1h2 24.6 11.1v180.1h-35.7z"/>
				<path id="&lt;Compound Path&gt;" fill-rule="evenodd" class="s1" d="m458.7 455.9c0 0.9 0 1.8 0 2.7 0 0.9 0 1.7 0 2.6q0 0.7-0.1 1.4c-3.4 76-60 86-93.8 86h-74.4v-180.1h74.4c33.8 0 90.4 10 93.8 86.1q0.1 0.7 0.1 1.3zm-42 2.7c0-32.2-9.1-74.4-63.4-74.4h-28.5v148.8h28.5c54.3 0 63.4-42.2 63.4-74.4z"/>
				<path id="&lt;Path&gt;" class="s0" d="m36.1 624.5q-1.5-1.9-3.9-3-2.4-1.1-4.6-1.1-1.1 0-2.3 0.2-1.2 0.2-2.1 0.8-1 0.6-1.6 1.5-0.6 0.9-0.6 2.3 0 1.2 0.5 2 0.5 0.8 1.5 1.4 0.9 0.6 2.3 1.1 1.3 0.5 3 1.1 2.4 0.8 5 1.7 2.6 1 4.8 2.6 2.1 1.6 3.5 4 1.5 2.4 1.5 6 0 4.1-1.5 7.1-1.6 3-4.1 4.9-2.6 2-5.9 2.9-3.2 0.9-6.7 0.9-5.1 0-9.9-1.7-4.8-1.8-7.9-5.1l7.5-7.7q1.7 2.2 4.6 3.6 2.8 1.5 5.7 1.5 1.2 0 2.5-0.3 1.2-0.3 2.1-0.9 0.9-0.6 1.4-1.6 0.5-1 0.5-2.4 0-1.4-0.6-2.3-0.7-0.9-1.9-1.7-1.3-0.8-3.1-1.4-1.9-0.7-4.2-1.4-2.3-0.7-4.5-1.7-2.2-1.1-3.9-2.6-1.7-1.6-2.7-3.9-1.1-2.2-1.1-5.4 0-4 1.6-6.8 1.6-2.8 4.3-4.7 2.6-1.8 5.9-2.6 3.3-0.8 6.6-0.9 4.1 0.1 8.2 1.5 4.2 1.5 7.4 4.4z"/>
				<path id="&lt;Path&gt;" class="s0" d="m99.8 659.7l-17.7-21.9h-0.1v21.9h-11.2v-47.5h11.2v19.3h0.2l17-19.3h14.3l-20.4 21.9 21.7 25.6z"/>
				<path id="&lt;Path&gt;" class="s0" d="m138.7 612.2h11.5v47.5h-11.5z"/>
				<path id="&lt;Path&gt;" class="s0" d="m210.4 659.7l-19.2-31.1h-0.2l0.3 31.1h-11.1v-47.5h13l19.1 31h0.2l-0.3-31h11.2v47.5z"/>
				<path id="&lt;Path&gt;" class="s0" d="m287.4 658.9q-4.7 2.1-10.7 2.1-5.5 0-10.2-1.8-4.6-1.8-8.1-5.2-3.4-3.3-5.3-7.9-2-4.6-2-10.2 0-5.7 2-10.4 2-4.6 5.5-7.9 3.5-3.2 8.2-5 4.7-1.7 10.1-1.7 5 0 9.9 1.8 4.9 1.7 7.9 5.2l-7.8 7.8q-1.6-2.3-4.2-3.3-2.7-1.1-5.4-1.1-3 0-5.5 1.1-2.6 1.1-4.4 3.1-1.8 1.9-2.8 4.6-1 2.6-1 5.8 0 3.2 1 5.9 1 2.7 2.8 4.6 1.8 1.9 4.3 3 2.4 1.1 5.4 1.1 3.4 0 6-1.4 2.5-1.3 4.1-3.5l8 7.5q-3.2 3.7-7.8 5.8z"/>
				<path id="&lt;Compound Path&gt;" fill-rule="evenodd" class="s0" d="m351.6 659.7l-3.7-9.3h-18.4l-3.5 9.3h-12.5l20-47.5h11.1l19.8 47.5zm-12.8-34.8l-6 16.3h11.9z"/>
				<path id="&lt;Compound Path&gt;" fill-rule="evenodd" class="s0" d="m413.9 659.7l-10.3-18.9h-3.9v18.9h-11.2v-47.5h18.1q3.4 0 6.7 0.7 3.2 0.7 5.8 2.3 2.6 1.7 4.1 4.5 1.6 2.7 1.6 6.8 0 4.9-2.6 8.2-2.6 3.3-7.3 4.7l12.4 20.3zm-0.4-33q0-1.6-0.7-2.7-0.7-1-1.9-1.6-1.1-0.6-2.5-0.8-1.3-0.2-2.6-0.2h-6.2v11.1h5.5q1.4 0 2.9-0.2 1.5-0.3 2.7-0.9 1.2-0.6 2-1.7 0.8-1.1 0.8-3z"/>
				<path id="&lt;Path&gt;" class="s0" d="m453.1 659.7v-47.5h32v9.6h-20.9v9h19.7v9.2h-19.7v9.9h22.1v9.8z"/>
				<path id="&lt;Path&gt;" class="s1" d="m246 19.4c-20.6-0.1-41.2 2.1-61.3 6.2-20.2 4-39.9 10.3-59 18.3-38.1 16.1-74.1 38.8-103.9 68.5-1.3 1.3-2.5 1-2.8 0.6-0.5-0.4-0.9-1.3 0.1-2.6 26.4-34 60.3-62.9 99.8-81.7 19.6-9.5 40.5-16.5 61.8-21.4 21.4-4.8 43.3-7.2 65.3-7.3 21.9 0.1 43.8 2.5 65.2 7.3 21.3 4.9 42.2 11.9 61.9 21.4 39.4 18.8 73.3 47.7 99.7 81.7 1 1.3 0.7 2.2 0.2 2.6-0.4 0.4-1.5 0.7-2.8-0.6-29.8-29.7-65.9-52.4-104-68.5-19-8-38.7-14.3-58.9-18.3-20.2-4.1-40.7-6.3-61.3-6.2z"/>
			</g>
			<g id="&lt;Group&gt;">
				<path id="&lt;Compound Path&gt;" fill-rule="evenodd" class="s1" d="m455.5 381.7c0-6.6 5.3-12.1 12-12.1 6.7 0 12 5.4 12 12v0.1c0 6.5-5.3 12.1-12 12.1-6.8 0-12-5.5-12-12.1zm22.6 0v-0.1c0-5.9-4.5-10.7-10.6-10.7-6 0-10.6 4.9-10.6 10.8 0 5.9 4.5 10.7 10.6 10.7 6 0 10.6-4.9 10.6-10.7zm-15.1-6.3h5.4c2.5 0 4.5 1.3 4.5 3.7 0 2-1.3 3.2-3 3.7l3.4 4.7h-2.4l-3.1-4.4h-2.9v4.4h-1.9zm5.2 6c1.7 0 2.7-0.8 2.7-2.2 0-1.4-1.1-2.1-2.7-2.1h-3.3v4.3z"/>
			</g>
		</g>
	</g>
<script xmlns="" type="text/javascript" src="chrome-extension://hejbmebodbijjdhflfknehhcgaklhano/../window/testing-library.js"/></svg>